Asap-Regular Italic.ufo
<glyph name="quotedbl" format="1">
  <advance width="319"/>
  <unicode hex="0022"/>
  <outline>
    <contour>
      <point x="230" y="702" type="line" smooth="yes"/>
      <point x="202" y="702"/>
      <point x="188" y="694"/>
      <point x="188" y="680" type="curve" smooth="yes"/>
      <point x="188" y="484" type="line" smooth="yes"/>
      <point x="188" y="475"/>
      <point x="195" y="472"/>
      <point x="209" y="472" type="curve"/>
      <point x="210" y="472" type="line"/>
      <point x="223" y="472"/>
      <point x="232" y="476"/>
      <point x="234" y="484" type="curve"/>
      <point x="248" y="549"/>
      <point x="277" y="675"/>
      <point x="277" y="680" type="curve" smooth="yes"/>
      <point x="277" y="701"/>
      <point x="254" y="702"/>
      <point x="240" y="702" type="curve" smooth="yes"/>
    </contour>
    <contour>
      <point x="102" y="702" type="line" smooth="yes"/>
      <point x="74" y="702"/>
      <point x="60" y="694"/>
      <point x="60" y="680" type="curve" smooth="yes"/>
      <point x="60" y="484" type="line" smooth="yes"/>
      <point x="60" y="475"/>
      <point x="67" y="472"/>
      <point x="81" y="472" type="curve"/>
      <point x="82" y="472" type="line"/>
      <point x="95" y="472"/>
      <point x="104" y="476"/>
      <point x="106" y="484" type="curve"/>
      <point x="120" y="549"/>
      <point x="149" y="675"/>
      <point x="149" y="680" type="curve" smooth="yes"/>
      <point x="149" y="701"/>
      <point x="126" y="702"/>
      <point x="112" y="702" type="curve" smooth="yes"/>
    </contour>
  </outline>
</glyph>
<glyph name="one" format="1">
  <advance width="535"/>
  <unicode hex="0031"/>
  <outline>
    <contour>
      <point x="89" y="651" type="line" smooth="yes"/>
      <point x="72" y="647"/>
      <point x="68" y="640"/>
      <point x="68" y="621" type="curve" smooth="yes"/>
      <point x="68" y="603"/>
      <point x="72" y="581"/>
      <point x="84" y="581" type="curve"/>
      <point x="264" y="611" type="line"/>
      <point x="207" y="72" type="line"/>
      <point x="33" y="72" type="line" smooth="yes"/>
      <point x="9" y="72"/>
      <point x="8" y="38"/>
      <point x="8" y="27" type="curve" smooth="yes"/>
      <point x="8" y="11"/>
      <point x="11" y="0"/>
      <point x="25" y="0" type="curve" smooth="yes"/>
      <point x="432" y="0" type="line" smooth="yes"/>
      <point x="456" y="0"/>
      <point x="457" y="34"/>
      <point x="457" y="45" type="curve" smooth="yes"/>
      <point x="457" y="61"/>
      <point x="454" y="72"/>
      <point x="440" y="72" type="curve" smooth="yes"/>
      <point x="291" y="72" type="line"/>
      <point x="355" y="681" type="line"/>
      <point x="355" y="693"/>
      <point x="342" y="702"/>
      <point x="326" y="702" type="curve"/>
    </contour>
  </outline>
</glyph>
<glyph name="six" format="1">
  <advance width="535"/>
  <unicode hex="0036"/>
  <outline>
    <contour>
      <point x="344" y="702"/>
      <point x="37" y="519"/>
      <point x="37" y="197" type="curve" smooth="yes"/>
      <point x="37" y="69"/>
      <point x="99" y="-5"/>
      <point x="226" y="-5" type="curve" smooth="yes"/>
      <point x="355" y="-5"/>
      <point x="465" y="87"/>
      <point x="465" y="229" type="curve" smooth="yes"/>
      <point x="465" y="337"/>
      <point x="392" y="405"/>
      <point x="294" y="405" type="curve" smooth="yes"/>
      <point x="233" y="405"/>
      <point x="189" y="390"/>
      <point x="156" y="372" type="curve"/>
      <point x="200" y="484"/>
      <point x="289" y="582"/>
      <point x="431" y="638" type="curve" smooth="yes"/>
      <point x="440" y="642"/>
      <point x="440" y="648"/>
      <point x="440" y="651" type="curve" smooth="yes"/>
      <point x="440" y="666"/>
      <point x="433" y="702"/>
      <point x="413" y="702" type="curve" smooth="yes"/>
    </contour>
    <contour>
      <point x="323" y="333"/>
      <point x="380" y="302"/>
      <point x="380" y="219" type="curve" smooth="yes"/>
      <point x="380" y="113"/>
      <point x="297" y="67"/>
      <point x="239" y="67" type="curve" smooth="yes"/>
      <point x="182" y="67"/>
      <point x="121" y="93"/>
      <point x="121" y="202" type="curve" smooth="yes"/>
      <point x="121" y="241"/>
      <point x="127" y="270"/>
      <point x="133" y="299" type="curve"/>
      <point x="163" y="315"/>
      <point x="209" y="333"/>
      <point x="262" y="333" type="curve" smooth="yes"/>
    </contour>
  </outline>
</glyph>
<glyph name="semicolon" format="1">
  <advance width="198"/>
  <unicode hex="003B"/>
  <outline>
    <contour>
      <point x="124" y="525" type="line" smooth="yes"/>
      <point x="95" y="525"/>
      <point x="83" y="517"/>
      <point x="82" y="503" type="curve" smooth="yes"/>
      <point x="75" y="437" type="line"/>
      <point x="75" y="423"/>
      <point x="84" y="415"/>
      <point x="113" y="415" type="curve" smooth="yes"/>
      <point x="130" y="415" type="line" smooth="yes"/>
      <point x="158" y="415"/>
      <point x="170" y="423"/>
      <point x="172" y="437" type="curve" smooth="yes"/>
      <point x="179" y="503" type="line"/>
      <point x="179" y="517"/>
      <point x="170" y="525"/>
      <point x="141" y="525" type="curve" smooth="yes"/>
    </contour>
    <component base="comma" xOffset="-16"/>
  </outline>
</glyph>
<glyph name="C" format="1">
  <advance width="619"/>
  <unicode hex="0043"/>
  <outline>
    <contour>
      <point x="125" y="706"/>
      <point x="38" y="501"/>
      <point x="38" y="274" type="curve" smooth="yes"/>
      <point x="38" y="83"/>
      <point x="131" y="-6"/>
      <point x="326" y="-6" type="curve" smooth="yes"/>
      <point x="407" y="-6"/>
      <point x="511" y="14"/>
      <point x="519" y="52" type="curve" smooth="yes"/>
      <point x="523" y="70"/>
      <point x="526" y="103"/>
      <point x="526" y="107" type="curve" smooth="yes"/>
      <point x="526" y="118"/>
      <point x="521" y="118"/>
      <point x="519" y="118" type="curve" smooth="yes"/>
      <point x="510" y="118"/>
      <point x="443" y="70"/>
      <point x="334" y="70" type="curve" smooth="yes"/>
      <point x="195" y="70"/>
      <point x="128" y="138"/>
      <point x="128" y="286" type="curve" smooth="yes"/>
      <point x="128" y="481"/>
      <point x="200" y="630"/>
      <point x="392" y="630" type="curve" smooth="yes"/>
      <point x="488" y="630"/>
      <point x="539" y="586"/>
      <point x="550" y="586" type="curve" smooth="yes"/>
      <point x="563" y="586"/>
      <point x="590" y="629"/>
      <point x="590" y="645" type="curve" smooth="yes"/>
      <point x="590" y="672"/>
      <point x="504" y="706"/>
      <point x="407" y="706" type="curve" smooth="yes"/>
    </contour>
    <contour>
      <point x="389" y="700" type="move" name="top"/>
    </contour>
    <contour>
      <point x="310" y="0" type="move" name="bottom"/>
    </contour>
  </outline>
</glyph>
<glyph name="E" format="1">
  <advance width="546"/>
  <unicode hex="0045"/>
  <outline>
    <contour>
      <point x="145" y="700" type="line" smooth="yes"/>
      <point x="124" y="700"/>
      <point x="114" y="691"/>
      <point x="112" y="670" type="curve" smooth="yes"/>
      <point x="45" y="28"/>
      <point x="45" y="26"/>
      <point x="45" y="24" type="curve" smooth="yes"/>
      <point x="45" y="7"/>
      <point x="53" y="0"/>
      <point x="72" y="0" type="curve" smooth="yes"/>
      <point x="426" y="0" type="line" smooth="yes"/>
      <point x="451" y="0"/>
      <point x="451" y="31"/>
      <point x="451" y="54" type="curve" smooth="yes"/>
      <point x="451" y="69"/>
      <point x="446" y="76"/>
      <point x="434" y="76" type="curve" smooth="yes"/>
      <point x="138" y="76" type="line"/>
      <point x="163" y="320" type="line"/>
      <point x="427" y="320" type="line" smooth="yes"/>
      <point x="452" y="320"/>
      <point x="452" y="351"/>
      <point x="452" y="374" type="curve" smooth="yes"/>
      <point x="452" y="389"/>
      <point x="447" y="396"/>
      <point x="435" y="396" type="curve" smooth="yes"/>
      <point x="171" y="396" type="line"/>
      <point x="195" y="624" type="line"/>
      <point x="490" y="624" type="line" smooth="yes"/>
      <point x="515" y="624"/>
      <point x="515" y="655"/>
      <point x="515" y="678" type="curve" smooth="yes"/>
      <point x="515" y="693"/>
      <point x="510" y="700"/>
      <point x="498" y="700" type="curve" smooth="yes"/>
    </contour>
    <contour>
      <point x="426" y="0" type="move" name="ogonek"/>
    </contour>
    <contour>
      <point x="251" y="0" type="move" name="bottom"/>
    </contour>
    <contour>
      <point x="323" y="700" type="move" name="top"/>
    </contour>
  </outline>
</glyph>
<glyph name="M" format="1">
  <advance width="843"/>
  <unicode hex="004D"/>
  <outline>
    <contour>
      <point x="715" y="702" type="line" smooth="yes"/>
      <point x="691" y="702"/>
      <point x="679" y="695"/>
      <point x="672" y="684" type="curve" smooth="yes"/>
      <point x="448" y="350" type="line"/>
      <point x="416" y="293" type="line"/>
      <point x="396" y="356" type="line"/>
      <point x="242" y="684" type="line" smooth="yes"/>
      <point x="237" y="695"/>
      <point x="225" y="702"/>
      <point x="201" y="702" type="curve" smooth="yes"/>
      <point x="165" y="702" type="line" smooth="yes"/>
      <point x="137" y="702"/>
      <point x="124" y="694"/>
      <point x="123" y="680" type="curve" smooth="yes"/>
      <point x="54" y="20" type="line"/>
      <point x="54" y="6"/>
      <point x="62" y="-2"/>
      <point x="92" y="-2" type="curve" smooth="yes"/>
      <point x="99" y="-2" type="line" smooth="yes"/>
      <point x="125" y="-2"/>
      <point x="139" y="6"/>
      <point x="141" y="20" type="curve" smooth="yes"/>
      <point x="198" y="564" type="line"/>
      <point x="201" y="558" type="line"/>
      <point x="365" y="208" type="line" smooth="yes"/>
      <point x="369" y="199"/>
      <point x="375" y="195"/>
      <point x="385" y="195" type="curve" smooth="yes"/>
      <point x="425" y="195" type="line" smooth="yes"/>
      <point x="436" y="195"/>
      <point x="443" y="199"/>
      <point x="449" y="208" type="curve" smooth="yes"/>
      <point x="683" y="554" type="line"/>
      <point x="686" y="558" type="line"/>
      <point x="630" y="20" type="line"/>
      <point x="630" y="6"/>
      <point x="638" y="-2"/>
      <point x="668" y="-2" type="curve" smooth="yes"/>
      <point x="675" y="-2" type="line" smooth="yes"/>
      <point x="701" y="-2"/>
      <point x="715" y="6"/>
      <point x="717" y="20" type="curve" smooth="yes"/>
      <point x="786" y="680" type="line"/>
      <point x="786" y="694"/>
      <point x="777" y="702"/>
      <point x="748" y="702" type="curve" smooth="yes"/>
    </contour>
  </outline>
</glyph>
<glyph name="backslash" format="1">
  <advance width="361"/>
  <unicode hex="005C"/>
  <outline>
    <contour>
      <point x="51" y="703" type="line" smooth="yes"/>
      <point x="40" y="703"/>
      <point x="35" y="697"/>
      <point x="35" y="690" type="curve" smooth="yes"/>
      <point x="35" y="688"/>
      <point x="36" y="685"/>
      <point x="37" y="682" type="curve" smooth="yes"/>
      <point x="260" y="-1" type="line" smooth="yes"/>
      <point x="264" y="-14"/>
      <point x="272" y="-22"/>
      <point x="286" y="-22" type="curve" smooth="yes"/>
      <point x="311" y="-22" type="line" smooth="yes"/>
      <point x="321" y="-22"/>
      <point x="326" y="-17"/>
      <point x="326" y="-9" type="curve" smooth="yes"/>
      <point x="326" y="-7"/>
      <point x="326" y="-4"/>
      <point x="325" y="-1" type="curve" smooth="yes"/>
      <point x="102" y="682" type="line" smooth="yes"/>
      <point x="98" y="695"/>
      <point x="90" y="703"/>
      <point x="76" y="703" type="curve" smooth="yes"/>
    </contour>
  </outline>
</glyph>
<glyph name="underscore" format="1">
  <advance width="534"/>
  <unicode hex="005F"/>
  <outline>
    <contour>
      <point x="2" y="-90" type="line" smooth="yes"/>
      <point x="-12" y="-90"/>
      <point x="-21" y="-96"/>
      <point x="-21" y="-118" type="curve" smooth="yes"/>
      <point x="-21" y="-132"/>
      <point x="-17" y="-138"/>
      <point x="-3" y="-138" type="curve" smooth="yes"/>
      <point x="532" y="-138" type="line" smooth="yes"/>
      <point x="546" y="-138"/>
      <point x="555" y="-132"/>
      <point x="555" y="-110" type="curve" smooth="yes"/>
      <point x="555" y="-96"/>
      <point x="551" y="-90"/>
      <point x="537" y="-90" type="curve" smooth="yes"/>
    </contour>
  </outline>
</glyph>
<glyph name="s" format="1">
  <advance width="413"/>
  <unicode hex="0073"/>
  <outline>
    <contour>
      <point x="134" y="529"/>
      <point x="53" y="472"/>
      <point x="53" y="386" type="curve" smooth="yes"/>
      <point x="53" y="329"/>
      <point x="88" y="292"/>
      <point x="164" y="249" type="curve" smooth="yes"/>
      <point x="216" y="220"/>
      <point x="270" y="197"/>
      <point x="270" y="147" type="curve" smooth="yes"/>
      <point x="270" y="103"/>
      <point x="228" y="66"/>
      <point x="161" y="66" type="curve" smooth="yes"/>
      <point x="112" y="66"/>
      <point x="77" y="86"/>
      <point x="58" y="98" type="curve" smooth="yes"/>
      <point x="51" y="102"/>
      <point x="46" y="105"/>
      <point x="43" y="105" type="curve" smooth="yes"/>
      <point x="35" y="105"/>
      <point x="17" y="70"/>
      <point x="17" y="53" type="curve" smooth="yes"/>
      <point x="17" y="32"/>
      <point x="62" y="-6"/>
      <point x="157" y="-6" type="curve" smooth="yes"/>
      <point x="287" y="-6"/>
      <point x="356" y="65"/>
      <point x="356" y="150" type="curve" smooth="yes"/>
      <point x="356" y="211"/>
      <point x="320" y="252"/>
      <point x="232" y="300" type="curve" smooth="yes"/>
      <point x="174" y="331"/>
      <point x="141" y="349"/>
      <point x="141" y="390" type="curve" smooth="yes"/>
      <point x="141" y="431"/>
      <point x="176" y="457"/>
      <point x="234" y="457" type="curve" smooth="yes"/>
      <point x="272" y="457"/>
      <point x="295" y="446"/>
      <point x="311" y="438" type="curve" smooth="yes"/>
      <point x="316" y="435"/>
      <point x="322" y="433"/>
      <point x="325" y="433" type="curve" smooth="yes"/>
      <point x="336" y="433"/>
      <point x="359" y="465"/>
      <point x="359" y="483" type="curve" smooth="yes"/>
      <point x="359" y="515"/>
      <point x="282" y="529"/>
      <point x="233" y="529" type="curve" smooth="yes"/>
    </contour>
    <contour>
      <point x="227" y="523" type="move" name="top"/>
    </contour>
    <contour>
      <point x="187" y="0" type="move" name="bottom"/>
    </contour>
  </outline>
</glyph>
<glyph name="y" format="1">
  <advance width="481"/>
  <unicode hex="0079"/>
  <outline>
    <contour>
      <point x="444" y="525" type="line"/>
      <point x="423" y="525"/>
      <point x="407" y="521"/>
      <point x="401" y="509" type="curve" smooth="yes"/>
      <point x="267" y="227" type="line" smooth="yes"/>
      <point x="255" y="202"/>
      <point x="242" y="173"/>
      <point x="232" y="148" type="curve"/>
      <point x="230" y="148" type="line"/>
      <point x="223" y="174"/>
      <point x="216" y="201"/>
      <point x="209" y="227" type="curve" smooth="yes"/>
      <point x="132" y="509" type="line" smooth="yes"/>
      <point x="129" y="521"/>
      <point x="114" y="525"/>
      <point x="94" y="525" type="curve" smooth="yes"/>
      <point x="86" y="525" type="line" smooth="yes"/>
      <point x="56" y="525"/>
      <point x="41" y="518"/>
      <point x="41" y="508" type="curve" smooth="yes"/>
      <point x="41" y="502"/>
      <point x="42" y="498"/>
      <point x="169" y="28" type="curve"/>
      <point x="64" y="-175" type="line"/>
      <point x="59" y="-184"/>
      <point x="57" y="-191"/>
      <point x="57" y="-193" type="curve" smooth="yes"/>
      <point x="57" y="-203"/>
      <point x="67" y="-208"/>
      <point x="88" y="-208" type="curve" smooth="yes"/>
      <point x="103" y="-208" type="line" smooth="yes"/>
      <point x="127" y="-208"/>
      <point x="145" y="-202"/>
      <point x="152" y="-187" type="curve" smooth="yes"/>
      <point x="481" y="494" type="line" smooth="yes"/>
      <point x="484" y="501"/>
      <point x="485" y="504"/>
      <point x="485" y="509" type="curve" smooth="yes"/>
      <point x="485" y="519"/>
      <point x="474" y="525"/>
      <point x="447" y="525" type="curve"/>
    </contour>
    <contour>
      <point x="271" y="523" type="move" name="top"/>
    </contour>
    <contour>
      <point x="326" y="-61" type="move" name="bottom"/>
    </contour>
  </outline>
</glyph>
<glyph name="z" format="1">
  <advance width="489"/>
  <unicode hex="007A"/>
  <outline>
    <contour>
      <point x="104" y="523" type="line" smooth="yes"/>
      <point x="80" y="523"/>
      <point x="79" y="489"/>
      <point x="79" y="478" type="curve" smooth="yes"/>
      <point x="79" y="462"/>
      <point x="82" y="451"/>
      <point x="96" y="451" type="curve" smooth="yes"/>
      <point x="352" y="451" type="line"/>
      <point x="19" y="62" type="line" smooth="yes"/>
      <point x="15" y="58"/>
      <point x="14" y="51"/>
      <point x="14" y="46" type="curve" smooth="yes"/>
      <point x="14" y="26"/>
      <point x="24" y="0"/>
      <point x="31" y="0" type="curve" smooth="yes"/>
      <point x="401" y="0" type="line" smooth="yes"/>
      <point x="425" y="0"/>
      <point x="426" y="34"/>
      <point x="426" y="45" type="curve" smooth="yes"/>
      <point x="426" y="61"/>
      <point x="423" y="72"/>
      <point x="409" y="72" type="curve" smooth="yes"/>
      <point x="134" y="72" type="line"/>
      <point x="466" y="461" type="line" smooth="yes"/>
      <point x="468" y="463"/>
      <point x="470" y="468"/>
      <point x="470" y="475" type="curve" smooth="yes"/>
      <point x="470" y="494"/>
      <point x="464" y="523"/>
      <point x="455" y="523" type="curve" smooth="yes"/>
    </contour>
    <contour>
      <point x="275" y="523" type="move" name="top"/>
    </contour>
    <contour>
      <point x="231" y="0" type="move" name="bottom"/>
    </contour>
  </outline>
</glyph>
<glyph name="plusminus" format="1">
  <advance width="560"/>
  <unicode hex="00B1"/>
  <outline>
    <contour>
      <point x="308" y="593" type="line" smooth="yes"/>
      <point x="289" y="593"/>
      <point x="277" y="583"/>
      <point x="275" y="563" type="curve" smooth="yes"/>
      <point x="257" y="394" type="line"/>
      <point x="88" y="394" type="line" smooth="yes"/>
      <point x="67" y="394"/>
      <point x="54" y="372"/>
      <point x="54" y="353" type="curve" smooth="yes"/>
      <point x="54" y="338"/>
      <point x="60" y="327"/>
      <point x="81" y="327" type="curve" smooth="yes"/>
      <point x="250" y="327" type="line"/>
      <point x="232" y="159" type="line"/>
      <point x="232" y="140"/>
      <point x="238" y="129"/>
      <point x="259" y="129" type="curve" smooth="yes"/>
      <point x="266" y="129" type="line" smooth="yes"/>
      <point x="286" y="129"/>
      <point x="297" y="140"/>
      <point x="299" y="159" type="curve" smooth="yes"/>
      <point x="317" y="327" type="line"/>
      <point x="485" y="327" type="line" smooth="yes"/>
      <point x="507" y="327"/>
      <point x="519" y="350"/>
      <point x="519" y="368" type="curve" smooth="yes"/>
      <point x="519" y="384"/>
      <point x="513" y="394"/>
      <point x="492" y="394" type="curve" smooth="yes"/>
      <point x="324" y="394" type="line"/>
      <point x="342" y="563" type="line"/>
      <point x="342" y="583"/>
      <point x="336" y="593"/>
      <point x="315" y="593" type="curve" smooth="yes"/>
    </contour>
    <contour>
      <point x="44" y="73" type="line" smooth="yes"/>
      <point x="22" y="73"/>
      <point x="9" y="46"/>
      <point x="9" y="26" type="curve" smooth="yes"/>
      <point x="9" y="9"/>
      <point x="15" y="0"/>
      <point x="36" y="0" type="curve" smooth="yes"/>
      <point x="460" y="0" type="line" smooth="yes"/>
      <point x="481" y="0"/>
      <point x="495" y="25"/>
      <point x="495" y="47" type="curve" smooth="yes"/>
      <point x="495" y="63"/>
      <point x="489" y="73"/>
      <point x="468" y="73" type="curve" smooth="yes"/>
    </contour>
  </outline>
</glyph>
<glyph name="uni00B9" format="1">
  <advance width="217"/>
  <unicode hex="00B9"/>
  <outline>
    <contour>
      <point x="66" y="673" type="line" smooth="yes"/>
      <point x="56" y="671"/>
      <point x="54" y="667"/>
      <point x="54" y="656" type="curve" smooth="yes"/>
      <point x="54" y="645"/>
      <point x="56" y="633"/>
      <point x="63" y="633" type="curve"/>
      <point x="140" y="650" type="line"/>
      <point x="104" y="309" type="line"/>
      <point x="104" y="302"/>
      <point x="109" y="297"/>
      <point x="125" y="297" type="curve" smooth="yes"/>
      <point x="129" y="297" type="line" smooth="yes"/>
      <point x="144" y="297"/>
      <point x="151" y="301"/>
      <point x="152" y="309" type="curve" smooth="yes"/>
      <point x="192" y="690" type="line"/>
      <point x="192" y="697"/>
      <point x="185" y="702"/>
      <point x="175" y="702" type="curve"/>
    </contour>
  </outline>
</glyph>
<glyph name="questiondown" format="1">
  <advance width="425"/>
  <unicode hex="00BF"/>
  <outline>
    <contour>
      <point x="298" y="321" type="line" smooth="yes"/>
      <point x="275" y="321"/>
      <point x="266" y="314"/>
      <point x="263" y="301" type="curve" smooth="yes"/>
      <point x="234" y="179"/>
      <point x="32" y="115"/>
      <point x="32" y="-33" type="curve" smooth="yes"/>
      <point x="32" y="-115"/>
      <point x="95" y="-183"/>
      <point x="219" y="-183" type="curve" smooth="yes"/>
      <point x="254" y="-183"/>
      <point x="361" y="-176"/>
      <point x="369" y="-136" type="curve" smooth="yes"/>
      <point x="374" y="-109"/>
      <point x="374" y="-92"/>
      <point x="374" y="-87" type="curve" smooth="yes"/>
      <point x="374" y="-76"/>
      <point x="373" y="-75"/>
      <point x="367" y="-75" type="curve" smooth="yes"/>
      <point x="360" y="-75"/>
      <point x="312" y="-109"/>
      <point x="243" y="-109" type="curve" smooth="yes"/>
      <point x="166" y="-109"/>
      <point x="127" y="-80"/>
      <point x="127" y="-21" type="curve" smooth="yes"/>
      <point x="127" y="39"/>
      <point x="174" y="81"/>
      <point x="238" y="139" type="curve" smooth="yes"/>
      <point x="298" y="193"/>
      <point x="341" y="257"/>
      <point x="341" y="300" type="curve" smooth="yes"/>
      <point x="341" y="313"/>
      <point x="333" y="321"/>
      <point x="313" y="321" type="curve" smooth="yes"/>
    </contour>
    <contour>
      <point x="323" y="525" type="line" smooth="yes"/>
      <point x="293" y="525"/>
      <point x="281" y="517"/>
      <point x="280" y="503" type="curve" smooth="yes"/>
      <point x="273" y="437" type="line"/>
      <point x="273" y="423"/>
      <point x="282" y="415"/>
      <point x="311" y="415" type="curve" smooth="yes"/>
      <point x="328" y="415" type="line" smooth="yes"/>
      <point x="356" y="415"/>
      <point x="369" y="423"/>
      <point x="370" y="437" type="curve" smooth="yes"/>
      <point x="377" y="503" type="line"/>
      <point x="377" y="517"/>
      <point x="369" y="525"/>
      <point x="340" y="525" type="curve" smooth="yes"/>
    </contour>
  </outline>
</glyph>
<glyph name="AE" format="1">
  <advance width="915"/>
  <unicode hex="00C6"/>
  <outline>
    <contour>
      <point x="392" y="700" type="line" smooth="yes"/>
      <point x="371" y="700"/>
      <point x="358" y="692"/>
      <point x="347" y="673" type="curve" smooth="yes"/>
      <point x="-41" y="31" type="line" smooth="yes"/>
      <point x="-45" y="24"/>
      <point x="-47" y="17"/>
      <point x="-47" y="13" type="curve" smooth="yes"/>
      <point x="-47" y="3"/>
      <point x="-38" y="-2"/>
      <point x="-9" y="-2" type="curve" smooth="yes"/>
      <point x="-4" y="-2" type="line" smooth="yes"/>
      <point x="14" y="-2"/>
      <point x="30" y="3"/>
      <point x="37" y="14" type="curve" smooth="yes"/>
      <point x="134" y="178" type="line"/>
      <point x="429" y="178" type="line"/>
      <point x="445" y="29" type="line" smooth="yes"/>
      <point x="447" y="9"/>
      <point x="457" y="0"/>
      <point x="478" y="0" type="curve" smooth="yes"/>
      <point x="770" y="0" type="line" smooth="yes"/>
      <point x="795" y="0"/>
      <point x="795" y="31"/>
      <point x="795" y="54" type="curve" smooth="yes"/>
      <point x="795" y="69"/>
      <point x="790" y="76"/>
      <point x="778" y="76" type="curve" smooth="yes"/>
      <point x="530" y="76" type="line"/>
      <point x="502" y="320" type="line"/>
      <point x="771" y="320" type="line" smooth="yes"/>
      <point x="796" y="320"/>
      <point x="796" y="351"/>
      <point x="796" y="374" type="curve" smooth="yes"/>
      <point x="796" y="389"/>
      <point x="791" y="396"/>
      <point x="779" y="396" type="curve" smooth="yes"/>
      <point x="494" y="396" type="line"/>
      <point x="468" y="624" type="line"/>
      <point x="834" y="624" type="line" smooth="yes"/>
      <point x="859" y="624"/>
      <point x="859" y="655"/>
      <point x="859" y="678" type="curve" smooth="yes"/>
      <point x="859" y="693"/>
      <point x="854" y="700"/>
      <point x="842" y="700" type="curve" smooth="yes"/>
    </contour>
    <contour>
      <point x="389" y="552" type="line"/>
      <point x="419" y="253" type="line"/>
      <point x="180" y="253" type="line"/>
      <point x="360" y="552" type="line"/>
      <point x="387" y="610" type="line"/>
      <point x="389" y="610" type="line"/>
    </contour>
    <contour>
      <point x="458" y="700" type="move" name="top"/>
    </contour>
  </outline>
</glyph>
<glyph name="Eng" format="1">
  <advance width="719"/>
  <unicode hex="014A"/>
  <outline>
    <contour>
      <point x="621" y="702" type="line" smooth="yes"/>
      <point x="593" y="702"/>
      <point x="580" y="694"/>
      <point x="579" y="680" type="curve" smooth="yes"/>
      <point x="523" y="145" type="line"/>
      <point x="499" y="201" type="line"/>
      <point x="224" y="683" type="line" smooth="yes"/>
      <point x="216" y="697"/>
      <point x="206" y="702"/>
      <point x="184" y="702" type="curve" smooth="yes"/>
      <point x="163" y="702" type="line" smooth="yes"/>
      <point x="135" y="702"/>
      <point x="122" y="694"/>
      <point x="121" y="680" type="curve" smooth="yes"/>
      <point x="52" y="20" type="line"/>
      <point x="52" y="6"/>
      <point x="60" y="-2"/>
      <point x="90" y="-2" type="curve" smooth="yes"/>
      <point x="97" y="-2" type="line" smooth="yes"/>
      <point x="123" y="-2"/>
      <point x="137" y="6"/>
      <point x="139" y="20" type="curve" smooth="yes"/>
      <point x="196" y="561" type="line"/>
      <point x="217" y="510" type="line"/>
      <point x="527" y="-33" type="line"/>
      <point x="597" y="20" type="line"/>
      <point x="666" y="680" type="line"/>
      <point x="666" y="694"/>
      <point x="657" y="702"/>
      <point x="628" y="702" type="curve" smooth="yes"/>
    </contour>
    <component base="dotlessj" xOffset="444"/>
  </outline>
</glyph>
<glyph name="uni01C7" format="1">
  <advance width="718"/>
  <unicode hex="01C7"/>
  <outline>
    <contour>
      <point x="160" y="702" type="line" smooth="yes"/>
      <point x="132" y="702"/>
      <point x="119" y="694"/>
      <point x="118" y="680" type="curve" smooth="yes"/>
      <point x="50" y="30" type="line"/>
      <point x="50" y="9"/>
      <point x="55" y="0"/>
      <point x="77" y="0" type="curve" smooth="yes"/>
      <point x="342" y="0" type="line" smooth="yes"/>
      <point x="367" y="0"/>
      <point x="367" y="31"/>
      <point x="367" y="54" type="curve" smooth="yes"/>
      <point x="367" y="69"/>
      <point x="362" y="76"/>
      <point x="350" y="76" type="curve" smooth="yes"/>
      <point x="143" y="76" type="line"/>
      <point x="206" y="680" type="line"/>
      <point x="206" y="694"/>
      <point x="197" y="702"/>
      <point x="168" y="702" type="curve" smooth="yes"/>
    </contour>
    <contour>
      <point x="611" y="702" type="line" smooth="yes"/>
      <point x="582" y="702"/>
      <point x="570" y="694"/>
      <point x="569" y="680" type="curve" smooth="yes"/>
      <point x="502" y="48" type="line" smooth="yes"/>
      <point x="493" y="-38"/>
      <point x="450" y="-77"/>
      <point x="357" y="-77" type="curve" smooth="yes"/>
      <point x="317" y="-77"/>
      <point x="300" y="-68"/>
      <point x="291" y="-68" type="curve" smooth="yes"/>
      <point x="282" y="-68"/>
      <point x="276" y="-83"/>
      <point x="276" y="-127" type="curve" smooth="yes"/>
      <point x="276" y="-152"/>
      <point x="321" y="-159"/>
      <point x="364" y="-159" type="curve" smooth="yes"/>
      <point x="511" y="-159"/>
      <point x="578" y="-74"/>
      <point x="591" y="52" type="curve" smooth="yes"/>
      <point x="657" y="680" type="line"/>
      <point x="657" y="694"/>
      <point x="648" y="702"/>
      <point x="619" y="702" type="curve" smooth="yes"/>
    </contour>
  </outline>
</glyph>
<glyph name="dotaccent" format="1">
  <advance width="320"/>
  <unicode hex="02D9"/>
  <outline>
    <contour>
      <point x="136" y="702"/>
      <point x="124" y="693"/>
      <point x="122" y="680" type="curve" smooth="yes"/>
      <point x="117" y="629" type="line"/>
      <point x="117" y="615"/>
      <point x="125" y="607"/>
      <point x="155" y="607" type="curve" smooth="yes"/>
      <point x="185" y="607"/>
      <point x="199" y="616"/>
      <point x="201" y="629" type="curve" smooth="yes"/>
      <point x="206" y="680" type="line"/>
      <point x="206" y="694"/>
      <point x="197" y="702"/>
      <point x="168" y="702" type="curve" smooth="yes"/>
    </contour>
    <contour>
      <point x="170" y="700" type="move" name="top"/>
    </contour>
    <contour>
      <point x="151" y="523" type="move" name="_top"/>
    </contour>
  </outline>
</glyph>
<glyph name="tilde" format="1">
  <advance width="365"/>
  <unicode hex="02DC"/>
  <outline>
    <component base="tilde.alt" xOffset="-22" xScale="1.1"/>
    <contour>
      <point x="210" y="523" type="move" name="_top"/>
    </contour>
    <contour>
      <point x="237" y="700" type="move" name="top"/>
    </contour>
    <contour>
      <point x="223" y="621" type="move" name="_tilde"/>
    </contour>
  </outline>
</glyph>
<glyph name="uni031B" format="1">
  <advance width="600"/>
  <unicode hex="031B"/>
  <outline>
    <contour>
      <point x="448" y="621" type="line" smooth="yes"/>
      <point x="441" y="617"/>
      <point x="437" y="611"/>
      <point x="437" y="605" type="curve" smooth="yes"/>
      <point x="437" y="593"/>
      <point x="458" y="573"/>
      <point x="458" y="550" type="curve" smooth="yes"/>
      <point x="458" y="527"/>
      <point x="442" y="510"/>
      <point x="399" y="510" type="curve"/>
      <point x="364" y="510" type="line"/>
      <point x="399" y="477" type="line"/>
      <point x="477" y="477"/>
      <point x="521" y="523"/>
      <point x="521" y="574" type="curve" smooth="yes"/>
      <point x="521" y="602"/>
      <point x="509" y="641"/>
      <point x="486" y="641" type="curve" smooth="yes"/>
      <point x="482" y="641"/>
      <point x="478" y="640"/>
      <point x="474" y="637" type="curve" smooth="yes"/>
    </contour>
    <contour>
      <point x="364" y="510" type="move" name="_horn"/>
    </contour>
    <contour>
      <point x="276" y="530" type="move" name="top"/>
    </contour>
  </outline>
</glyph>
<glyph name="endash" format="1">
  <advance width="500"/>
  <unicode hex="2013"/>
  <outline>
    <contour>
      <point x="24" y="302" type="line" smooth="yes"/>
      <point x="0" y="302"/>
      <point x="-1" y="268"/>
      <point x="-1" y="257" type="curve" smooth="yes"/>
      <point x="-1" y="241"/>
      <point x="2" y="230"/>
      <point x="16" y="230" type="curve" smooth="yes"/>
      <point x="476" y="230" type="line" smooth="yes"/>
      <point x="500" y="230"/>
      <point x="501" y="264"/>
      <point x="501" y="275" type="curve" smooth="yes"/>
      <point x="501" y="291"/>
      <point x="498" y="302"/>
      <point x="484" y="302" type="curve" smooth="yes"/>
    </contour>
  </outline>
</glyph>
<glyph name="quoteleft" format="1">
  <advance width="212"/>
  <unicode hex="2018"/>
  <outline>
    <contour>
      <point x="139" y="755"/>
      <point x="61" y="679"/>
      <point x="49" y="559" type="curve"/>
      <point x="49" y="542"/>
      <point x="60" y="531"/>
      <point x="86" y="531" type="curve" smooth="yes"/>
      <point x="95" y="531" type="line" smooth="yes"/>
      <point x="122" y="531"/>
      <point x="136" y="544"/>
      <point x="138" y="563" type="curve" smooth="yes"/>
      <point x="145" y="629"/>
      <point x="159" y="672"/>
      <point x="192" y="723" type="curve" smooth="yes"/>
      <point x="197" y="731"/>
      <point x="200" y="735"/>
      <point x="200" y="741" type="curve" smooth="yes"/>
      <point x="200" y="752"/>
      <point x="183" y="755"/>
      <point x="172" y="755" type="curve" smooth="yes"/>
    </contour>
  </outline>
</glyph>
<glyph name="dagger" format="1">
  <advance width="535"/>
  <unicode hex="2020"/>
  <outline>
    <contour>
      <point x="313" y="702" type="line"/>
      <point x="283" y="702"/>
      <point x="269" y="694"/>
      <point x="268" y="680" type="curve" smooth="yes"/>
      <point x="250" y="502" type="line"/>
      <point x="92" y="502" type="line" smooth="yes"/>
      <point x="68" y="502"/>
      <point x="67" y="464"/>
      <point x="67" y="452" type="curve" smooth="yes"/>
      <point x="67" y="434"/>
      <point x="70" y="422"/>
      <point x="84" y="422" type="curve" smooth="yes"/>
      <point x="241" y="422" type="line"/>
      <point x="222" y="242"/>
      <point x="185" y="-105"/>
      <point x="185" y="-118" type="curve"/>
      <point x="185" y="-132"/>
      <point x="194" y="-140"/>
      <point x="222" y="-140" type="curve"/>
      <point x="224" y="-140" type="line"/>
      <point x="251" y="-140"/>
      <point x="265" y="-132"/>
      <point x="267" y="-118" type="curve" smooth="yes"/>
      <point x="323" y="422" type="line"/>
      <point x="481" y="422" type="line" smooth="yes"/>
      <point x="505" y="422"/>
      <point x="506" y="460"/>
      <point x="506" y="472" type="curve" smooth="yes"/>
      <point x="506" y="490"/>
      <point x="503" y="502"/>
      <point x="489" y="502" type="curve" smooth="yes"/>
      <point x="332" y="502" type="line"/>
      <point x="338" y="561"/>
      <point x="350" y="674"/>
      <point x="350" y="680" type="curve" smooth="yes"/>
      <point x="350" y="694"/>
      <point x="342" y="702"/>
      <point x="315" y="702" type="curve"/>
    </contour>
  </outline>
</glyph>
<glyph name="bullet" format="1">
  <advance width="336"/>
  <unicode hex="2022"/>
  <outline>
    <contour>
      <point x="97" y="452"/>
      <point x="40" y="383"/>
      <point x="40" y="313" type="curve" smooth="yes"/>
      <point x="40" y="249"/>
      <point x="87" y="201"/>
      <point x="153" y="201" type="curve" smooth="yes"/>
      <point x="233" y="201"/>
      <point x="293" y="264"/>
      <point x="293" y="340" type="curve" smooth="yes"/>
      <point x="293" y="403"/>
      <point x="245" y="452"/>
      <point x="180" y="452" type="curve" smooth="yes"/>
    </contour>
  </outline>
</glyph>
<glyph name="arrowright" format="1">
  <advance width="750"/>
  <unicode hex="2192"/>
  <outline>
    <contour>
      <point x="448" y="530" type="line" smooth="yes"/>
      <point x="435" y="530"/>
      <point x="429" y="528"/>
      <point x="429" y="522" type="curve" smooth="yes"/>
      <point x="429" y="519"/>
      <point x="433" y="514"/>
      <point x="437" y="509" type="curve" smooth="yes"/>
      <point x="628" y="300" type="line"/>
      <point x="25" y="300" type="line" smooth="yes"/>
      <point x="11" y="300"/>
      <point x="-1" y="291"/>
      <point x="-1" y="260" type="curve" smooth="yes"/>
      <point x="-1" y="239"/>
      <point x="3" y="230"/>
      <point x="18" y="230" type="curve" smooth="yes"/>
      <point x="621" y="230" type="line"/>
      <point x="387" y="22" type="line" smooth="yes"/>
      <point x="380" y="16"/>
      <point x="376" y="11"/>
      <point x="375" y="8" type="curve"/>
      <point x="375" y="3"/>
      <point x="382" y="1"/>
      <point x="394" y="1" type="curve" smooth="yes"/>
      <point x="449" y="1" type="line" smooth="yes"/>
      <point x="463" y="1"/>
      <point x="473" y="5"/>
      <point x="484" y="15" type="curve" smooth="yes"/>
      <point x="742" y="247" type="line" smooth="yes"/>
      <point x="748" y="253"/>
      <point x="750" y="258"/>
      <point x="750" y="265" type="curve" smooth="yes"/>
      <point x="750" y="274"/>
      <point x="750" y="278"/>
      <point x="745" y="283" type="curve" smooth="yes"/>
      <point x="536" y="516" type="line" smooth="yes"/>
      <point x="527" y="526"/>
      <point x="517" y="530"/>
      <point x="503" y="530" type="curve" smooth="yes"/>
    </contour>
  </outline>
</glyph>
<glyph name="minus" format="1">
  <advance width="560"/>
  <unicode hex="2212"/>
  <outline>
    <contour>
      <point x="60" y="258" type="line" smooth="yes"/>
      <point x="36" y="258"/>
      <point x="35" y="224"/>
      <point x="35" y="213" type="curve" smooth="yes"/>
      <point x="35" y="197"/>
      <point x="38" y="186"/>
      <point x="52" y="186" type="curve" smooth="yes"/>
      <point x="499" y="186" type="line" smooth="yes"/>
      <point x="523" y="186"/>
      <point x="524" y="220"/>
      <point x="524" y="231" type="curve" smooth="yes"/>
      <point x="524" y="247"/>
      <point x="521" y="258"/>
      <point x="507" y="258" type="curve" smooth="yes"/>
    </contour>
  </outline>
</glyph>
<glyph name="uniFB01" format="1">
  <advance width="563"/>
  <unicode hex="FB01"/>
  <outline>
    <contour>
      <point x="223" y="756"/>
      <point x="144" y="740"/>
      <point x="133" y="624" type="curve" smooth="yes"/>
      <point x="123" y="523" type="line"/>
      <point x="83" y="523" type="line" smooth="yes"/>
      <point x="59" y="523"/>
      <point x="58" y="489"/>
      <point x="58" y="478" type="curve" smooth="yes"/>
      <point x="58" y="462"/>
      <point x="61" y="451"/>
      <point x="75" y="451" type="curve" smooth="yes"/>
      <point x="115" y="451" type="line"/>
      <point x="70" y="20" type="line"/>
      <point x="70" y="5"/>
      <point x="80" y="-2"/>
      <point x="108" y="-2" type="curve" smooth="yes"/>
      <point x="112" y="-2" type="line" smooth="yes"/>
      <point x="138" y="-2"/>
      <point x="152" y="5"/>
      <point x="154" y="20" type="curve" smooth="yes"/>
      <point x="199" y="451" type="line"/>
      <point x="265" y="451" type="line" smooth="yes"/>
      <point x="303" y="451"/>
      <point x="310" y="500"/>
      <point x="310" y="504" type="curve" smooth="yes"/>
      <point x="310" y="518"/>
      <point x="306" y="523"/>
      <point x="294" y="523" type="curve" smooth="yes"/>
      <point x="207" y="523" type="line"/>
      <point x="216" y="614" type="line" smooth="yes"/>
      <point x="222" y="674"/>
      <point x="245" y="684"/>
      <point x="276" y="684" type="curve" smooth="yes"/>
      <point x="306" y="684"/>
      <point x="317" y="677"/>
      <point x="321" y="677" type="curve" smooth="yes"/>
      <point x="333" y="677"/>
      <point x="347" y="714"/>
      <point x="347" y="725" type="curve" smooth="yes"/>
      <point x="347" y="755"/>
      <point x="293" y="756"/>
      <point x="276" y="756" type="curve" smooth="yes"/>
    </contour>
    <contour>
      <point x="444" y="525" type="line" smooth="yes"/>
      <point x="418" y="525"/>
      <point x="404" y="519"/>
      <point x="402" y="503" type="curve"/>
      <point x="400" y="503"/>
      <point x="361" y="130"/>
      <point x="361" y="89" type="curve" smooth="yes"/>
      <point x="361" y="23"/>
      <point x="394" y="-6"/>
      <point x="450" y="-6" type="curve" smooth="yes"/>
      <point x="468" y="-6"/>
      <point x="505" y="2"/>
      <point x="510" y="27" type="curve" smooth="yes"/>
      <point x="514" y="49"/>
      <point x="514" y="63"/>
      <point x="514" y="64" type="curve" smooth="yes"/>
      <point x="514" y="70"/>
      <point x="511" y="71"/>
      <point x="508" y="71" type="curve" smooth="yes"/>
      <point x="502" y="71"/>
      <point x="493" y="66"/>
      <point x="481" y="66" type="curve" smooth="yes"/>
      <point x="465" y="66"/>
      <point x="446" y="66"/>
      <point x="446" y="107" type="curve" smooth="yes"/>
      <point x="446" y="137"/>
      <point x="486" y="503"/>
      <point x="486" y="503" type="curve"/>
      <point x="486" y="518"/>
      <point x="476" y="525"/>
      <point x="448" y="525" type="curve" smooth="yes"/>
    </contour>
    <contour>
      <point x="464" y="752" type="line" smooth="yes"/>
      <point x="438" y="752"/>
      <point x="424" y="746"/>
      <point x="422" y="730" type="curve" smooth="yes"/>
      <point x="416" y="671" type="line"/>
      <point x="416" y="653"/>
      <point x="432" y="649"/>
      <point x="458" y="649" type="curve" smooth="yes"/>
      <point x="470" y="649" type="line" smooth="yes"/>
      <point x="498" y="649"/>
      <point x="508" y="658"/>
      <point x="508" y="671" type="curve"/>
      <point x="514" y="730" type="line"/>
      <point x="514" y="746"/>
      <point x="504" y="752"/>
      <point x="476" y="752" type="curve" smooth="yes"/>
    </contour>
  </outline>
</glyph>
<glyph name="baraccentmedium" format="1">
  <advance width="417"/>
  <outline>
    <contour>
      <point x="28" y="356" type="line" smooth="yes"/>
      <point x="4" y="356"/>
      <point x="3" y="323"/>
      <point x="3" y="312" type="curve" smooth="yes"/>
      <point x="3" y="296"/>
      <point x="6" y="285"/>
      <point x="20" y="285" type="curve" smooth="yes"/>
      <point x="386" y="285" type="line" smooth="yes"/>
      <point x="410" y="285"/>
      <point x="411" y="319"/>
      <point x="411" y="330" type="curve" smooth="yes"/>
      <point x="411" y="346"/>
      <point x="408" y="356"/>
      <point x="394" y="356" type="curve" smooth="yes"/>
    </contour>
    <contour>
      <point x="212" y="317" type="move" name="_center"/>
    </contour>
  </outline>
</glyph>
<glyph name="breve.alt" format="1">
  <advance width="320"/>
  <outline>
    <contour>
      <point x="275" y="706"/>
      <point x="280" y="696"/>
      <point x="269" y="681" type="curve" smooth="yes"/>
      <point x="257" y="664"/>
      <point x="206" y="637"/>
      <point x="158" y="637" type="curve" smooth="yes"/>
      <point x="109" y="637"/>
      <point x="65" y="659"/>
      <point x="54" y="681" type="curve" smooth="yes"/>
      <point x="46" y="696"/>
      <point x="51" y="706"/>
      <point x="34" y="706" type="curve" smooth="yes"/>
      <point x="19" y="706"/>
      <point x="17" y="696"/>
      <point x="17" y="679" type="curve" smooth="yes"/>
      <point x="17" y="617"/>
      <point x="83" y="584"/>
      <point x="151" y="584" type="curve" smooth="yes"/>
      <point x="218" y="584"/>
      <point x="307" y="623"/>
      <point x="307" y="694" type="curve" smooth="yes"/>
      <point x="307" y="702"/>
      <point x="303" y="706"/>
      <point x="293" y="706" type="curve" smooth="yes"/>
    </contour>
    <contour>
      <point x="174" y="721" type="move" name="tilde"/>
    </contour>
    <contour>
      <point x="166" y="680" type="move" name="top"/>
    </contour>
    <contour>
      <point x="147" y="523" type="move" name="_top"/>
    </contour>
  </outline>
</glyph>
<glyph name="caron.alt" format="1">
  <advance width="293"/>
  <outline>
    <contour>
      <point x="163" y="700" type="line" smooth="yes"/>
      <point x="136" y="700"/>
      <point x="119" y="687"/>
      <point x="119" y="668" type="curve" smooth="yes"/>
      <point x="119" y="614"/>
      <point x="92" y="578"/>
      <point x="92" y="551" type="curve" smooth="yes"/>
      <point x="92" y="539"/>
      <point x="108" y="536"/>
      <point x="119" y="536" type="curve" smooth="yes"/>
      <point x="143" y="536"/>
      <point x="209" y="622"/>
      <point x="209" y="672" type="curve" smooth="yes"/>
      <point x="209" y="689"/>
      <point x="197" y="700"/>
      <point x="172" y="700" type="curve" smooth="yes"/>
    </contour>
    <contour>
      <point x="59" y="700" type="move" name="_caron"/>
    </contour>
  </outline>
</glyph>
<glyph name="hookabovecomb.alt" format="1">
  <advance width="300"/>
  <outline>
    <contour>
      <point x="59" y="623"/>
      <point x="45" y="611"/>
      <point x="24" y="600" type="curve" smooth="yes"/>
      <point x="7" y="591"/>
      <point x="-3" y="586"/>
      <point x="-3" y="578" type="curve" smooth="yes"/>
      <point x="-3" y="569"/>
      <point x="10" y="558"/>
      <point x="31" y="558" type="curve" smooth="yes"/>
      <point x="37" y="558"/>
      <point x="60" y="568"/>
      <point x="75" y="580" type="curve" smooth="yes"/>
      <point x="93" y="594"/>
      <point x="117" y="613"/>
      <point x="117" y="644" type="curve" smooth="yes"/>
      <point x="117" y="696"/>
      <point x="72" y="712"/>
      <point x="38" y="712" type="curve" smooth="yes"/>
      <point x="3" y="712"/>
      <point x="-43" y="697"/>
      <point x="-43" y="684" type="curve" smooth="yes"/>
      <point x="-43" y="674"/>
      <point x="-31" y="651"/>
      <point x="-23" y="651" type="curve" smooth="yes"/>
      <point x="-18" y="651"/>
      <point x="-6" y="664"/>
      <point x="25" y="664" type="curve" smooth="yes"/>
      <point x="45" y="664"/>
      <point x="59" y="655"/>
      <point x="59" y="637" type="curve" smooth="yes"/>
    </contour>
    <contour>
      <point x="45" y="700" type="move" name="top"/>
    </contour>
    <contour>
      <point x="32" y="562" type="move" name="_top"/>
    </contour>
  </outline>
</glyph>
